<svg width="1010" height="514" viewBox="0 0 1010 514" fill="none" xmlns="http://www.w3.org/2000/svg">
<path d="M515.867 3.21615C499.6 7.34949 489.333 11.7495 476.267 20.2828C454.4 34.5495 440.533 50.1495 429.6 72.8162C419.6 93.8828 417.467 103.349 417.467 128.683C417.467 146.283 417.867 151.749 420.267 160.149C426.8 184.283 437.867 203.883 454.4 220.683C507.333 274.416 591.867 274.016 642.533 219.75C684 175.483 690.267 107.749 657.467 58.2828C638.4 29.6162 604.4 7.34949 570.667 1.48282C556.4 -1.05051 529.467 -0.250514 515.867 3.21615ZM561.467 24.1495C615.6 31.4828 654.133 75.4828 654.267 130.016C654.533 182.416 618.533 225.616 566.533 235.35C521.333 243.883 471.333 217.883 451.067 175.349C442.8 158.283 441.2 150.149 441.333 128.016C441.333 110.816 441.733 107.483 444.933 98.0162C451.867 77.0828 465.067 57.8828 480.267 46.2828C491.067 38.0162 498.267 34.1495 511.6 29.4828C529.733 23.0828 543.467 21.6162 561.467 24.1495Z" fill="#152E48"/>
<path d="M599.867 77.7495C598.267 78.6828 581.867 95.0828 563.333 114.283C544.667 133.616 529.2 149.349 528.667 149.349C528.267 149.349 520.667 142.149 511.867 133.349C496.533 118.016 495.733 117.349 490.4 117.349C485.733 117.349 484.133 118.016 481.333 121.483C477.467 126.016 476.933 130.416 479.733 135.749C482.667 141.216 520.667 178.283 524.933 179.883C527.733 180.949 529.733 180.816 532.933 179.483C535.333 178.416 550.8 163.616 569.2 144.549C618.4 93.7495 617.867 94.2828 617.867 88.4162C617.867 85.6162 617.067 82.4162 616.133 81.2162C612.267 76.2828 604.933 74.6828 599.867 77.7495Z" fill="#152E48"/>
<path d="M320.667 43.4828C310.533 46.1495 301.067 51.7495 295.6 58.0162C293.067 60.9495 287.333 70.5495 282.933 79.3495C278.533 88.1495 271.333 102.149 266.8 110.549L258.8 125.749L256.933 121.216C253.6 112.949 249.733 111.349 233.2 111.349C220 111.349 218.133 111.616 214.267 114.416C205.2 120.949 205.6 136.016 215.067 142.283C218.933 144.816 221.333 145.349 230.667 145.349C237.2 145.349 241.867 145.883 241.867 146.683C241.867 147.349 241.333 148.016 240.667 148.016C239.867 148.016 235.867 151.349 231.467 155.349C226 160.283 222.4 165.216 219.733 170.95C216 179.083 215.867 180.283 215.067 206.683C214.533 221.75 214.133 246.283 214 261.35C213.867 292.15 214.667 295.75 223.2 300.683C227.2 302.95 230.667 303.35 247.2 303.75C263.733 304.15 267.2 303.883 271.067 301.75C277.333 298.416 280.533 291.883 280.533 282.416V274.683H390.533H500.533L500.667 281.616C500.667 291.483 503.067 297.35 508.4 300.95C512.667 303.75 514.267 304.016 533.067 304.016C550.933 304.016 553.733 303.75 557.6 301.35C563.467 297.75 565.867 291.483 565.867 279.75V270.016L554.933 270.683C530.267 272.15 507.333 268.016 486.4 258.15C469.333 250.016 459.067 242.816 445.467 229.216L433.867 217.483L391.467 217.083L348.933 216.683L343.333 212.95C337.867 209.35 329.867 198.683 329.867 195.083C329.867 193.75 338.667 193.35 374.533 193.35C399.067 193.35 419.2 193.083 419.2 192.816C419.2 192.55 417.733 188.95 415.867 184.816C411.733 175.616 407.733 160.283 406.533 149.883C406.133 145.616 405.467 140.683 405.067 138.949L404.533 136.016L348.8 135.883C318.267 135.749 291.467 135.349 289.2 134.816C282 133.349 283.067 129.083 296.533 103.083C311.067 75.2162 312.667 72.8162 319.867 69.3495C325.067 66.8162 328.133 66.6828 372.667 66.6828H419.867L423.067 60.9495C424.8 57.8828 428.667 52.1495 431.467 48.2828L436.667 41.3495L382.267 41.4828C339.2 41.4828 326.4 41.8828 320.667 43.4828ZM270.533 180.016C281.6 181.483 291.733 183.083 293.2 183.483C302.133 186.283 308.4 196.016 308.533 206.95C308.533 216.95 307.467 217.35 275.867 217.35C245.2 217.35 242.4 216.55 237.867 206.283C233.733 197.35 234.8 181.483 239.6 178.416C242.133 176.816 249.067 177.216 270.533 180.016Z" fill="#152E48"/>
<path d="M488.267 342.683C479.6 347.35 476 359.616 481.067 367.35C489.867 380.816 510.8 377.883 515.2 362.55C519.467 347.75 502.267 335.083 488.267 342.683Z" fill="#152E48"/>
<path d="M59.2 345.483C45.2 349.083 36.2667 353.883 25.7333 363.749C15.0667 373.616 8.8 383.349 3.73333 398.016C0.266662 407.883 -5.08626e-06 410.283 -5.08626e-06 428.016C-5.08626e-06 445.483 0.399995 448.416 3.6 458.283C10.6667 479.216 25.3333 496.549 43.6 505.216C68.1333 516.816 102.933 515.083 124.667 501.216C138 492.683 151.867 473.216 154.667 458.949L155.6 454.683H138.267H120.933L118.533 459.883C112.267 473.749 96.9333 482.949 79.8667 483.083C52.8 483.216 33.4667 460.283 33.4667 428.016C33.4667 395.749 52.4 373.349 79.6 373.349C90.2667 373.349 96.1333 375.083 104.133 380.416C109.467 384.016 117.6 393.616 119.467 398.549C119.6 399.216 127.867 400.149 137.733 400.683L155.6 401.616L154.8 396.549C152.267 381.349 136 360.949 119.6 352.283C101.733 342.949 78.9333 340.283 59.2 345.483Z" fill="#152E48"/>
<path d="M528.933 346.016C529.2 346.683 539.867 384.149 552.533 428.949L575.733 510.683H594.133H612.4L615.067 501.616C616.533 496.683 624.133 470.816 631.867 444.149C639.467 417.483 646 395.349 646.267 395.083C646.667 394.816 663.333 454.416 674.8 496.949L678.533 510.683H697.467C708 510.683 716.533 510.416 716.533 510.016C716.533 509.616 723.067 486.283 731.067 458.283C739.2 430.283 749.6 393.349 754.267 376.283L762.8 345.349H746.4C737.333 345.349 729.467 345.349 728.933 345.216C728.4 345.216 726.267 351.749 724.267 359.616C713.2 401.349 697.333 459.483 696.667 460.283C696.133 460.816 693.2 451.216 689.867 438.949C686.667 426.683 679.733 400.816 674.4 381.349L664.933 346.016L646.8 345.616L628.8 345.216L626.933 351.616C625.867 355.216 618.533 381.216 610.4 409.616C602.4 438.016 595.6 461.349 595.2 461.349C594.8 461.349 593.6 457.616 592.533 452.949C591.333 448.416 584.8 422.416 578 395.083L565.467 345.483L546.933 345.083C535.067 344.816 528.667 345.216 528.933 346.016Z" fill="#152E48"/>
<path d="M888.533 428.016V510.683H903.867H919.2V503.749V496.816L923.6 500.949C925.867 503.349 931.467 506.816 935.867 508.949C942.8 512.149 945.333 512.683 955.867 512.549C971.2 512.416 980.4 508.949 990.267 500.016C1020.53 472.283 1014.4 409.749 979.733 393.483C971.333 389.483 960.133 387.616 951.2 388.683C942.4 389.616 928.4 396.149 924.533 400.949L921.867 404.416L921.6 378.549C921.467 364.283 921.333 351.083 921.333 348.949L921.2 345.349H904.933H888.533V428.016ZM960 419.883C962.933 421.216 967.2 424.549 969.467 427.349C982.267 442.949 978 473.616 961.867 482.016C952.533 486.816 939.067 485.349 930.8 478.549C917.333 467.483 916.133 440.283 928.4 426.549C936.267 417.749 949.2 414.949 960 419.883Z" fill="#152E48"/>
<path d="M410.933 358.283L403.2 358.816V375.083V391.35H395.6C391.333 391.35 387.733 391.75 387.6 392.283C387.333 392.95 387.2 398.283 387.2 404.283V415.35H395.467H403.867L404.267 447.35C404.667 482.95 405.6 490.283 411.067 498.95C417.2 508.55 424 511.083 444.933 511.75C455.467 512.15 462.533 511.883 463.467 510.95C464.267 510.15 464.4 504.683 463.867 496.15C462.933 483.483 462.667 482.683 460.267 483.483C455.067 485.083 443.067 482.683 439.733 479.35C436.533 476.15 436.533 475.883 436.533 446.016V416.016H449.867H463.2V403.35V390.683H449.867H436.533V374.016V357.349L427.6 357.616C422.533 357.749 415.067 358.016 410.933 358.283Z" fill="#152E48"/>
<path d="M212.267 390.016C191.867 395.216 178.667 406.683 171.2 426.016C166.8 437.083 166.667 463.483 170.8 474.816C178.667 496.149 194.133 508.816 216.8 512.283C235.067 515.083 254.8 510.016 266.533 499.749C272.4 494.549 280.533 480.949 280.533 476.283C280.533 475.083 276.8 474.683 266.133 474.683H251.6L246.133 480.016C239.867 485.883 234.933 487.216 223.2 486.416C214.8 485.749 210.133 483.349 205.467 477.083C202.8 473.483 199.067 461.483 200.133 459.616C200.4 459.083 218.933 458.683 241.2 458.683H281.867L282.667 455.083C284 450.016 281.2 431.349 277.867 422.283C270.4 402.416 253.333 390.549 229.733 388.816C223.333 388.283 217.2 388.683 212.267 390.016ZM238.533 416.416C243.867 419.483 248.8 426.549 250.533 433.616L251.467 437.349H226H200.533L201.333 433.616C204.8 417.749 224.667 408.549 238.533 416.416Z" fill="#152E48"/>
<path d="M355.867 389.883C347.2 392.549 342.8 395.483 336.8 401.883L331.2 408.016V400.016V392.016H315.2H299.2V451.349V510.683H315.067H331.067L331.467 475.616C331.867 442.549 332 440.416 334.8 435.216C341.333 422.949 354.667 417.349 368 421.216L372.133 422.416L373.067 412.283C373.467 406.816 373.867 399.083 373.867 395.083V388.016L367.6 388.149C364 388.149 358.8 388.949 355.867 389.883Z" fill="#152E48"/>
<path d="M800.8 389.483C786.667 392.283 771.867 402.416 764.933 414.283C758.667 424.949 756.267 435.349 756.267 450.683C756.267 471.749 762.533 487.749 775.467 499.483C800.933 522.416 852.133 514.949 865.6 486.283C870.933 474.949 870.667 474.683 854 474.683C840 474.683 839.467 474.816 837.333 478.016C833.733 483.483 825.733 486.683 815.867 486.683C806.133 486.683 800 484.549 795.6 479.883C792.267 476.283 788.533 466.683 788.533 461.883V458.683H829.867H871.2V447.616C871.2 424.949 862.667 407.483 846.8 397.216C834.667 389.349 816.8 386.283 800.8 389.483ZM824.133 414.816C831.333 417.483 839.2 427.883 839.2 434.683C839.2 437.216 838.533 437.349 814.667 437.349C801.067 437.349 789.733 436.816 789.333 436.283C788.4 434.683 794.4 422.416 797.333 419.749C803.867 414.016 816.133 411.749 824.133 414.816Z" fill="#152E48"/>
<path d="M480.533 450.683V510.683H497.2H513.867V450.683V390.683H497.2H480.533V450.683Z" fill="#152E48"/>
</svg>
